<svg width="310" height="310" viewBox="0 0 310 310" fill="none" xmlns="http://www.w3.org/2000/svg">
<g clip-path="url(#clip0_104_2)">
<path d="M302.973 57.388C298.103 59.548 293.096 61.371 287.98 62.851C294.037 56.001 298.655 47.941 301.474 39.121C302.106 37.144 301.451 34.98 299.826 33.687C298.203 32.393 295.948 32.238 294.161 33.297C283.296 39.741 271.574 44.372 259.283 47.08C246.902 34.982 230.086 28.097 212.702 28.097C176.007 28.097 146.153 57.95 146.153 94.644C146.153 97.534 146.336 100.408 146.698 103.242C101.163 99.244 58.83 76.863 29.76 41.204C28.724 39.933 27.128 39.248 25.494 39.379C23.859 39.507 22.39 40.429 21.564 41.846C15.668 51.963 12.551 63.534 12.551 75.307C12.551 91.342 18.276 106.556 28.389 118.444C25.314 117.379 22.33 116.048 19.482 114.467C17.953 113.616 16.087 113.629 14.568 114.5C13.048 115.371 12.095 116.973 12.055 118.724C12.048 119.019 12.048 119.314 12.048 119.613C12.048 143.548 24.93 165.097 44.625 176.842C42.933 176.673 41.242 176.428 39.562 176.107C37.83 175.776 36.049 176.383 34.881 177.704C33.711 179.024 33.324 180.864 33.863 182.544C41.153 205.304 59.922 222.045 82.612 227.149C63.793 238.936 42.272 245.11 19.68 245.11C14.966 245.11 10.225 244.833 5.58501 244.284C3.28001 244.01 1.07601 245.371 0.291015 247.563C-0.493985 249.756 0.338015 252.201 2.29901 253.458C31.322 272.067 64.881 281.903 99.346 281.903C167.1 281.903 209.485 249.953 233.11 223.15C262.57 189.729 279.466 145.492 279.466 101.783C279.466 99.957 279.438 98.113 279.382 96.275C291.005 87.518 301.012 76.92 309.155 64.739C310.392 62.889 310.258 60.444 308.825 58.741C307.394 57.037 305.009 56.486 302.973 57.388Z" fill="white"/>
</g>
<defs>
<clipPath id="clip0_104_2">
<rect width="310" height="310" fill="white"/>
</clipPath>
</defs>
</svg>
